<svg width="16" height="16" viewBox="0 0 16 16" fill="none" xmlns="http://www.w3.org/2000/svg">
<path d="M0 4.86035C5.33922 4.86035 10.6564 4.86035 15.9956 4.86035C15.9956 4.94437 15.9956 5.01955 15.9956 5.09915C15.9956 7.99567 15.9956 10.8922 15.9956 13.7887C15.9956 14.7439 15.3072 15.4603 14.3453 15.4912C14.2791 15.4957 14.2129 15.4912 14.1467 15.4912C9.93712 15.4912 5.73194 15.478 1.52234 15.5001C0.450083 15.5045 0 14.7837 0 13.9656C0.00441258 11.5157 0 9.07026 0 6.62038C0 6.03665 0 5.45734 0 4.86035ZM11.7816 6.69997C11.5962 6.69997 11.4065 6.69997 11.2212 6.69997C11.2124 6.69997 11.1991 6.69997 11.1903 6.69997C10.9299 6.7044 10.7755 6.85033 10.7667 7.10681C10.7579 7.51365 10.7579 7.92492 10.7667 8.33176C10.7711 8.58382 10.9167 8.73859 11.1682 8.74302C11.5874 8.75186 12.0066 8.75186 12.4214 8.74302C12.6773 8.73417 12.8009 8.59709 12.8053 8.3406C12.8097 7.93376 12.8097 7.5225 12.8053 7.11566C12.8009 6.85917 12.6464 6.7044 12.3905 6.69997C12.1919 6.69997 11.989 6.69997 11.7816 6.69997ZM7.80143 13.2404C8.00441 13.2404 8.20739 13.2448 8.41037 13.2404C8.67071 13.2359 8.81191 13.121 8.81633 12.8645C8.82956 12.44 8.82956 12.0154 8.81633 11.5909C8.81191 11.3521 8.6663 11.2062 8.43243 11.1973C8.00882 11.1885 7.58522 11.1885 7.16161 11.1973C6.92333 11.2017 6.78213 11.3654 6.78213 11.6086C6.77772 12.0154 6.77772 12.4267 6.78213 12.8335C6.78654 13.0812 6.94098 13.2315 7.18809 13.2359C7.39106 13.2448 7.59845 13.2404 7.80143 13.2404ZM11.786 13.2404C11.989 13.2404 12.1919 13.2448 12.3949 13.2404C12.6685 13.2359 12.8009 13.1033 12.8053 12.8335C12.8097 12.4311 12.8097 12.0287 12.8053 11.6263C12.8053 11.3654 12.6597 11.2062 12.4037 11.2017C11.989 11.1929 11.5786 11.1929 11.1638 11.2017C10.9211 11.2062 10.7711 11.3565 10.7667 11.5997C10.7579 12.0198 10.7579 12.44 10.7667 12.8556C10.7711 13.0989 10.9344 13.2359 11.1726 13.2448C11.38 13.2448 11.583 13.2404 11.786 13.2404ZM6.78213 7.71707C6.78213 7.91607 6.78213 8.11507 6.78213 8.31407C6.78654 8.58382 6.92333 8.74302 7.1925 8.74744C7.59845 8.75628 8.00882 8.75628 8.41478 8.74744C8.67954 8.74302 8.81191 8.62362 8.81633 8.36713C8.82956 7.9426 8.82956 7.51808 8.81633 7.09355C8.81191 6.85033 8.65306 6.70882 8.41037 6.7044C8.00441 6.69997 7.59404 6.69997 7.18809 6.7044C6.93216 6.70882 6.78213 6.85917 6.77772 7.12008C6.77772 7.31908 6.78213 7.51808 6.78213 7.71707ZM2.84611 12.2233C2.84611 12.4223 2.8417 12.6213 2.84611 12.8203C2.85052 13.0812 3.00055 13.2359 3.25648 13.2404C3.6492 13.2448 4.03751 13.2448 4.43023 13.2404C4.69939 13.2359 4.88031 13.0723 4.88913 12.7981C4.89796 12.4002 4.89796 12.0022 4.88913 11.6042C4.88472 11.3521 4.73469 11.1973 4.48318 11.1929C4.06839 11.1841 3.65803 11.1841 3.24324 11.1929C2.99173 11.1973 2.85052 11.3565 2.84611 11.6086C2.8417 11.8164 2.84611 12.0198 2.84611 12.2233ZM2.84611 7.71707C2.84611 7.92049 2.8417 8.12391 2.84611 8.33176C2.85052 8.57497 2.9829 8.73859 3.22559 8.74744C3.63596 8.76071 4.05074 8.76071 4.46553 8.74744C4.70822 8.73859 4.8759 8.58382 4.88472 8.3406C4.89796 7.91607 4.89796 7.49154 4.88031 7.06701C4.87148 6.84148 4.70822 6.71324 4.47876 6.70882C4.07281 6.7044 3.66244 6.7044 3.25648 6.70882C3.00055 6.71324 2.85052 6.86802 2.84611 7.1245C2.8417 7.31908 2.84611 7.51808 2.84611 7.71707Z" fill="#41A8F5"/>
<path d="M15.9476 3.79463C10.6305 3.79463 5.32216 3.79463 0.0270693 3.79463C0.0270693 3.0915 -0.00381869 2.40164 0.0358945 1.71621C0.0667825 1.14132 0.534516 0.473577 1.41703 0.504532C1.81416 0.517798 2.21129 0.508954 2.60843 0.508954C2.66138 0.508954 2.71433 0.508954 2.78934 0.508954C2.78934 0.641619 2.78934 0.756595 2.78934 0.871572C2.78934 1.22092 2.78934 1.56585 2.78934 1.9152C2.78934 2.27782 2.98349 2.50777 3.29238 2.50335C3.59684 2.50335 3.78658 2.27782 3.78658 1.92405C3.78658 1.52163 3.78658 1.11921 3.78658 0.712374C3.78658 0.650463 3.78658 0.592975 3.78658 0.517798C6.44295 0.517798 9.0905 0.517798 11.7513 0.517798C11.7557 0.575287 11.7601 0.637197 11.7601 0.694685C11.7601 1.12364 11.7557 1.55701 11.7645 1.98596C11.7689 2.2336 11.9101 2.41933 12.1264 2.48124C12.3249 2.53873 12.5588 2.46798 12.6647 2.28224C12.7265 2.17611 12.7529 2.04345 12.7574 1.92405C12.7706 1.51721 12.7618 1.10595 12.7618 0.699107C12.7618 0.641619 12.7618 0.579709 12.7618 0.504532C13.256 0.504532 13.7281 0.491265 14.2003 0.508954C14.4341 0.517798 14.6768 0.557598 14.893 0.641619C15.4358 0.858305 15.8197 1.22977 15.9388 1.82676C15.9432 1.85329 15.9476 1.87983 15.9476 1.91078C15.9476 2.53431 15.9476 3.15783 15.9476 3.79463Z" fill="#41A8F5"/>
</svg>
