<svg width="16" height="16" viewBox="0 0 16 16" fill="none" xmlns="http://www.w3.org/2000/svg">
<path d="M0 4.37345C0.024974 4.25694 0.0457856 4.14042 0.074922 4.02807C0.154006 3.71598 0.299688 3.43301 0.524454 3.19998C0.944849 2.77553 1.36941 2.35109 1.79813 1.9308C2.15193 1.58542 2.564 1.41897 3.04683 1.62287C3.22997 1.70193 3.40062 1.82677 3.54214 1.96409C4.14984 2.55499 4.74506 3.16253 5.34443 3.76175C5.63163 4.05304 5.83975 4.37761 5.78148 4.81454C5.73985 5.1308 5.56087 5.36799 5.34443 5.58854C4.99063 5.94224 4.63684 6.29595 4.28304 6.64549C4.0999 6.82443 4.0999 6.87436 4.20395 7.11155C4.6077 8.01454 5.22372 8.76357 5.88554 9.48347C6.54318 10.195 7.26327 10.8317 8.08325 11.3477C8.37045 11.5266 8.6743 11.6723 8.97399 11.8304C9.11134 11.9053 9.21124 11.8429 9.30697 11.7472C9.67742 11.3727 10.0479 11.0023 10.4225 10.632C10.6348 10.4197 10.872 10.2491 11.1842 10.2117C11.4922 10.1742 11.7586 10.2658 12 10.4489C12.0832 10.5113 12.1582 10.582 12.2331 10.6569C12.8241 11.2437 13.4194 11.8304 13.9979 12.4255C14.1436 12.5753 14.281 12.75 14.3684 12.9415C14.5515 13.3326 14.4808 13.7279 14.2019 14.0359C13.7357 14.5519 13.2445 15.0512 12.7326 15.5256C12.2664 15.9542 11.6795 16.0374 11.0676 15.9917C10.0271 15.9168 9.06972 15.5589 8.14568 15.1011C6.6847 14.3771 5.35692 13.4575 4.1873 12.3214C2.57648 10.7402 1.26535 8.94666 0.457856 6.82027C0.24974 6.27514 0.0790843 5.71754 0.024974 5.13496C0.0208117 5.10999 0.00832466 5.08919 0 5.06422C0 4.83119 0 4.60232 0 4.37345Z" fill="#41A8F5"/>
<path d="M8.34375 0C8.70171 0.083225 9.06383 0.153966 9.41763 0.249675C11.0659 0.694928 12.4645 1.55631 13.6382 2.7922C14.7121 3.92822 15.4364 5.25566 15.8401 6.76203C15.8734 6.8827 15.8942 7.00754 15.9192 7.12822C15.9442 7.24473 15.9691 7.36125 16.0024 7.50689C15.5987 7.57763 15.1991 7.64837 14.8037 7.71495C13.9587 4.11131 11.7319 1.95163 8.08984 1.20676C8.13979 0.819766 8.1939 0.407802 8.24801 0C8.28131 0 8.31045 0 8.34375 0Z" fill="#41A8F5"/>
<path d="M12.7499 7.71915C12.3462 7.78989 11.9508 7.85647 11.547 7.92305C11.0975 5.9839 9.89456 4.81459 7.92578 4.41095C7.97989 4.01563 8.03816 3.61615 8.09227 3.21667C10.136 3.40809 12.3379 5.1683 12.7499 7.71915Z" fill="#41A8F5"/>
</svg>
